<svg xmlns="http://www.w3.org/2000/svg" width="20" height="17.214" viewBox="0 0 20 17.214">
  <g id="medium_logo" transform="translate(-64.401 -91.088)" opacity="0.8">
    <g id="그룹_14" data-name="그룹 14" transform="translate(64.401 91.088)">
      <path id="패스_36" data-name="패스 36" d="M320.047,91.108a.117.117,0,0,0-.185.114v13.961l6.113,3.057a.352.352,0,0,0,.554-.342V94.458a.177.177,0,0,0-.1-.158Z" transform="translate(-306.529 -91.088)" fill="#738d88"/>
      <path id="패스_37" data-name="패스 37" d="M192.138,101.88,198.7,91.222a.23.23,0,0,1,.293-.084l6.335,3.168a.15.15,0,0,1,.061.213L198.8,105.213Z" transform="translate(-185.471 -91.114)" fill="#406e65"/>
      <path id="패스_38" data-name="패스 38" d="M70.877,95.211c-.406-.2-.544-.053-.306.334l6.234,10.131,6.667,3.333L76.849,98.245a.288.288,0,0,0-.117-.107Z" transform="translate(-70.139 -94.91)" fill="#3d605b"/>
      <path id="패스_39" data-name="패스 39" d="M71.068,109.3a.352.352,0,0,1-.554.342l-5.744-2.872a.733.733,0,0,1-.369-.6V92.834a.235.235,0,0,1,.369-.228l6.215,3.108a.149.149,0,0,1,.082.133Z" transform="translate(-64.401 -92.49)" fill="#738d88"/>
    </g>
  </g>
</svg>
