<svg xmlns="http://www.w3.org/2000/svg" width="16" height="10.909" viewBox="0 0 16 10.909">
  <g id="password_eye_icon" transform="translate(0 -89.25)">
    <g id="visibility" transform="translate(0 89.25)">
      <path id="패스_41" data-name="패스 41" d="M8,89.25A8.569,8.569,0,0,0,0,94.7a8.594,8.594,0,0,0,16,0A8.569,8.569,0,0,0,8,89.25Zm0,9.091A3.636,3.636,0,1,1,11.636,94.7,3.6,3.6,0,0,1,8,98.341Zm0-5.818A2.182,2.182,0,1,0,10.182,94.7,2.143,2.143,0,0,0,8,92.523Z" transform="translate(0 -89.25)" fill="#1b3031"/>
    </g>
  </g>
</svg>
