<svg xmlns="http://www.w3.org/2000/svg" width="14" height="14" viewBox="0 0 14 14">
  <g id="그룹_25" data-name="그룹 25" transform="translate(-0.433 0.662)">
    <g id="그룹_24" data-name="그룹 24" transform="translate(5.029 2.263)">
      <path id="패스_48" data-name="패스 48" d="M40,22.8a1.922,1.922,0,0,0-.491-.67,2.16,2.16,0,0,0-.728-.413,2.732,2.732,0,0,0-.889-.142,2.542,2.542,0,0,0-1.673.564A2.407,2.407,0,0,0,35.4,23.69l-.02.137,1.364.134.016-.128a1.33,1.33,0,0,1,.356-.8,1.014,1.014,0,0,1,.763-.295,1.046,1.046,0,0,1,.4.076.948.948,0,0,1,.318.209,1.037,1.037,0,0,1,.215.32,1.014,1.014,0,0,1,.081.406.939.939,0,0,1-.079.392,1.784,1.784,0,0,1-.215.351,3.4,3.4,0,0,1-.3.332q-.172.166-.344.328-.217.205-.363.352a1.387,1.387,0,0,0-.4.716,2.441,2.441,0,0,0-.046.513v.789h1.3v-.606a2.622,2.622,0,0,1,.02-.358.805.805,0,0,1,.07-.236.86.86,0,0,1,.14-.205c.067-.074.157-.164.265-.266l.115-.1.654-.677a2.3,2.3,0,0,0,.354-.612,2.121,2.121,0,0,0,.128-.764A2.186,2.186,0,0,0,40,22.8Z" transform="translate(-35.375 -21.575)" fill="#1b3031"/>
      <path id="패스_49" data-name="패스 49" d="M48.073,70.718a.848.848,0,1,0,.594.248A.817.817,0,0,0,48.073,70.718Z" transform="translate(-45.671 -64.254)" fill="#1b3031"/>
    </g>
    <path id="패스_50" data-name="패스 50" d="M7.433.522A5.816,5.816,0,1,1,1.617,6.338,5.823,5.823,0,0,1,7.433.522m0-1.184a7,7,0,1,0,7,7,7,7,0,0,0-7-7Z" transform="translate(0 0)" fill="#1b3031"/>
  </g>
</svg>
