<svg xmlns="http://www.w3.org/2000/svg" width="20" height="22" viewBox="0 0 20 22">
  <g id="sidebar_more_icon" transform="translate(-11.717 0.834)">
    <g id="그룹_13" data-name="그룹 13">
      <path id="equalizer-c" d="M13.841,9.174a4,4,0,0,1,7.75-.008h9.126a1,1,0,0,1,0,2H21.591a4,4,0,0,1-7.75-.007,1.02,1.02,0,0,1-.124.007h-1a1,1,0,0,1,0-2h1A1.019,1.019,0,0,1,13.841,9.174Zm6,7a4,4,0,0,1,7.751,0,1.036,1.036,0,0,1,.125-.008h3a1,1,0,0,1,0,2h-3a1.036,1.036,0,0,1-.125-.007,4,4,0,0,1-7.751,0,1.02,1.02,0,0,1-.124.007h-7a1,1,0,0,1,0-2h7A1.019,1.019,0,0,1,19.841,16.174Zm1-14a4,4,0,0,1,7.75-.008h2.126a1,1,0,0,1,0,2H28.591a4,4,0,0,1-7.75-.007,1.019,1.019,0,0,1-.124.007h-8a1,1,0,1,1,0-2h8A1.019,1.019,0,0,1,20.841,2.174Zm3.876,2.992a2,2,0,1,0-2-2A2,2,0,0,0,24.717,5.166Zm-1,14a2,2,0,1,0-2-2A2,2,0,0,0,23.717,19.166Zm-6-7a2,2,0,1,0-2-2A2,2,0,0,0,17.717,12.166Z" fill="#c4c9c8" fill-rule="evenodd"/>
    </g>
  </g>
</svg>
