<svg xmlns="http://www.w3.org/2000/svg" width="160" height="39.651" viewBox="0 0 160 39.651">
  <g id="sidebar_yggdrash_wallet_logo" transform="translate(-79.591 -322.9)">
    <g id="그룹_8" data-name="그룹 8" transform="translate(79.591 322.9)">
      <g id="그룹_6" data-name="그룹 6" transform="translate(0 0)">
        <path id="패스_14" data-name="패스 14" d="M109.5,330.264l-8.521,4.875v-2.674l6.149-3.571L96.75,322.9l-10.042,5.8,5.809,3.7v2.759L84.4,330.031l-4.807,2.775v19.837l17.159,9.907,17.159-9.907V332.807Zm-15.779-1.415,3.014,1.667,3.035-1.747v3l-2.968,1.722-3.082-1.8Zm-12.45,9.3,3.505-2.028,4.329,2.514v8.794l-7.835,4.9Zm11.242,15.5-4.125,2.426-2.328-1.344,6.453-3.867Zm7.257,3.509-3.035-1.747-3.014,1.667v-2.734l3.082-1.8,2.968,1.722Zm5.468-1.161-4.26-2.423v-2.793l6.531,3.9Zm3.488-2.014-7.747-4.59v-9.964l-1.208.721v12.72l-2.969-1.723-3.08,1.8v-12.7l-1.208-.758v9.982l-7.665,4.559-2.17-1.253,7.635-4.714v-9.953l-4.347-2.727,2.3-1.36,4.011,2.364,1.442.87v-4.165l3.08,1.8,2.969-1.724v4.115l5.54-3.25,2.342,1.414-4.507,2.689v9.921l5.9,3.47,1.9,1.171Zm3.495-1.678-7.867-4.93v-8.607l4.473-2.591,3.394,1.98Z" transform="translate(-79.591 -322.9)" fill="#fff"/>
        <path id="패스_15" data-name="패스 15" d="M245.731,467.784v11.662l.759-.443.708.411v-11.6l-.708.411Z" transform="translate(-229.3 -453.456)" fill="#fff"/>
      </g>
      <g id="그룹_7" data-name="그룹 7" transform="translate(38.462 14.668)">
        <path id="패스_16" data-name="패스 16" d="M473.63,476.909l1.9-4.092h3.232l-3.632,6.727v4.311h-3v-4.221l-3.632-6.818h3.247Z" transform="translate(-468.496 -472.659)" fill="#fff"/>
        <path id="패스_17" data-name="패스 17" d="M585.1,475.948h4.764v5.95a13.1,13.1,0,0,1-4.266.664,5.155,5.155,0,0,1-3.945-1.48,5.925,5.925,0,0,1-1.393-4.221,5.544,5.544,0,0,1,1.525-4.16,5.864,5.864,0,0,1,4.274-1.487,9.462,9.462,0,0,1,1.967.2,8.325,8.325,0,0,1,1.612.5l-.944,2.341a5.837,5.837,0,0,0-2.62-.589,2.491,2.491,0,0,0-2.02.849,3.674,3.674,0,0,0-.714,2.427,3.721,3.721,0,0,0,.646,2.359,2.237,2.237,0,0,0,1.861.812,5.454,5.454,0,0,0,1.223-.128v-1.729H585.1Z" transform="translate(-569.211 -471.214)" fill="#fff"/>
        <path id="패스_18" data-name="패스 18" d="M700.844,475.948h4.764v5.95a13.094,13.094,0,0,1-4.266.664,5.156,5.156,0,0,1-3.945-1.48A5.925,5.925,0,0,1,696,476.862a5.544,5.544,0,0,1,1.525-4.16,5.864,5.864,0,0,1,4.274-1.487,9.463,9.463,0,0,1,1.967.2,8.322,8.322,0,0,1,1.612.5l-.944,2.341a5.837,5.837,0,0,0-2.62-.589,2.491,2.491,0,0,0-2.02.849,3.674,3.674,0,0,0-.714,2.427,3.72,3.72,0,0,0,.646,2.359,2.237,2.237,0,0,0,1.861.812,5.454,5.454,0,0,0,1.223-.128v-1.729h-1.971Z" transform="translate(-673.504 -471.214)" fill="#fff"/>
        <path id="패스_19" data-name="패스 19" d="M825.236,478.1a5.7,5.7,0,0,1-1.521,4.258,5.843,5.843,0,0,1-4.277,1.5h-3.571V472.817h3.82a5.764,5.764,0,0,1,4.1,1.359A5.129,5.129,0,0,1,825.236,478.1Zm-3.1.106a3.508,3.508,0,0,0-.6-2.25,2.22,2.22,0,0,0-1.823-.732h-.868v6.184h.664a2.406,2.406,0,0,0,1.993-.789A3.812,3.812,0,0,0,822.14,478.208Z" transform="translate(-781.512 -472.659)" fill="#fff"/>
        <path id="패스_20" data-name="패스 20" d="M933.594,479.839v4.017h-2.982V472.817h3.617q4.5,0,4.5,3.262a3.259,3.259,0,0,1-1.872,2.967l3.216,4.81H936.69l-2.341-4.017Zm0-2.242h.559q1.563,0,1.563-1.382,0-1.14-1.533-1.14h-.589Z" transform="translate(-884.91 -472.659)" fill="#fff"/>
        <path id="패스_21" data-name="패스 21" d="M1032.33,483.443l-.544-2.069H1028.2l-.559,2.069h-3.277l3.6-11.084h3.979l3.646,11.084Zm-1.163-4.515-.476-1.812q-.166-.6-.4-1.563t-.313-1.374q-.068.385-.268,1.268t-.887,3.481Z" transform="translate(-969.39 -472.246)" fill="#fff"/>
        <path id="패스_22" data-name="패스 22" d="M1152.492,479.059a3.255,3.255,0,0,1-.521,1.823,3.412,3.412,0,0,1-1.5,1.238,5.569,5.569,0,0,1-2.3.442,9.322,9.322,0,0,1-1.85-.155,6.857,6.857,0,0,1-1.555-.54V479.21a8.87,8.87,0,0,0,1.774.683,6.613,6.613,0,0,0,1.691.245,1.642,1.642,0,0,0,.974-.23.708.708,0,0,0,.31-.593.651.651,0,0,0-.125-.4,1.454,1.454,0,0,0-.4-.344q-.276-.174-1.469-.71a7.044,7.044,0,0,1-1.62-.951,2.92,2.92,0,0,1-.8-1.057,3.507,3.507,0,0,1-.261-1.412,2.83,2.83,0,0,1,1.11-2.378,4.892,4.892,0,0,1,3.05-.853,8.561,8.561,0,0,1,3.5.793l-.914,2.3a6.623,6.623,0,0,0-2.673-.71,1.393,1.393,0,0,0-.846.2.616.616,0,0,0-.264.506.73.73,0,0,0,.336.581,12.787,12.787,0,0,0,1.823.936,5.046,5.046,0,0,1,1.982,1.378A2.993,2.993,0,0,1,1152.492,479.059Z" transform="translate(-1077.88 -471.214)" fill="#fff"/>
        <path id="패스_23" data-name="패스 23" d="M1249.652,483.856h-3v-4.5h-3.466v4.5h-3V472.817h3v4.092h3.466v-4.092h3Z" transform="translate(-1163.874 -472.659)" fill="#fff"/>
      </g>
    </g>
    <g id="그룹_9" data-name="그룹 9" transform="translate(207.469 340.223)" opacity="0.7">
      <path id="패스_24" data-name="패스 24" d="M1372.631,503.574h1.833l1.218,5.151h.021l1.6-5.151h1.563l1.585,5.288h.021l1.283-5.288h1.7l-2.231,8.033h-1.5l-1.681-5.56h-.021l-1.682,5.56h-1.444Z" transform="translate(-1372.631 -503.029)" fill="#fff"/>
      <path id="패스_25" data-name="패스 25" d="M1484.52,532.625h-.021a1.545,1.545,0,0,1-.717.635,2.36,2.36,0,0,1-.943.193,2.315,2.315,0,0,1-.706-.108,1.749,1.749,0,0,1-.6-.323,1.549,1.549,0,0,1-.41-.534,1.7,1.7,0,0,1-.151-.737,1.765,1.765,0,0,1,.167-.806,1.55,1.55,0,0,1,.453-.544,2.2,2.2,0,0,1,.652-.335,4.552,4.552,0,0,1,.76-.176,6.927,6.927,0,0,1,.787-.068q.393-.011.727-.011a.906.906,0,0,0-.307-.721,1.074,1.074,0,0,0-.728-.266,1.518,1.518,0,0,0-.728.176,2.012,2.012,0,0,0-.588.482l-.862-.93a2.936,2.936,0,0,1,1.057-.664,3.6,3.6,0,0,1,1.25-.221,3.127,3.127,0,0,1,1.17.187,1.705,1.705,0,0,1,.733.55,2.175,2.175,0,0,1,.383.891,6.16,6.16,0,0,1,.108,1.22v2.8h-1.488Zm-.4-1.725q-.183,0-.458.017a2.212,2.212,0,0,0-.528.1,1.155,1.155,0,0,0-.431.238.563.563,0,0,0-.178.443.492.492,0,0,0,.248.454,1,1,0,0,0,.517.147,1.551,1.551,0,0,0,.458-.068,1.332,1.332,0,0,0,.393-.193.918.918,0,0,0,.275-.318.954.954,0,0,0,.1-.454V530.9Z" transform="translate(-1470.259 -524.739)" fill="#fff"/>
      <path id="패스_26" data-name="패스 26" d="M1542.338,498.065h1.617v8.578h-1.617Z" transform="translate(-1525.554 -498.065)" fill="#fff"/>
      <path id="패스_27" data-name="패스 27" d="M1570.676,498.065h1.617v8.578h-1.617Z" transform="translate(-1551.09 -498.065)" fill="#fff"/>
      <path id="패스_28" data-name="패스 28" d="M1602.281,532.364a2.6,2.6,0,0,1-.981.805,2.818,2.818,0,0,1-1.229.284,3.147,3.147,0,0,1-1.137-.2,2.716,2.716,0,0,1-.927-.584,2.743,2.743,0,0,1-.62-.913,3.247,3.247,0,0,1,0-2.383,2.742,2.742,0,0,1,.62-.913,2.71,2.71,0,0,1,.927-.584,3.15,3.15,0,0,1,1.137-.2,2.472,2.472,0,0,1,1.019.2,2.123,2.123,0,0,1,.776.584,2.7,2.7,0,0,1,.491.913,3.863,3.863,0,0,1,.172,1.191v.533h-3.751a1.365,1.365,0,0,0,.42.777,1.152,1.152,0,0,0,.8.289,1.168,1.168,0,0,0,.674-.187,1.857,1.857,0,0,0,.48-.482Zm-1.369-2.428a1.016,1.016,0,0,0-.27-.738.935.935,0,0,0-.722-.306,1.16,1.16,0,0,0-.474.091,1.187,1.187,0,0,0-.35.232,1.021,1.021,0,0,0-.226.329,1.127,1.127,0,0,0-.092.392Z" transform="translate(-1574.956 -524.739)" fill="#fff"/>
      <path id="패스_29" data-name="패스 29" d="M1660.311,515.518h-1.423v1.838a3.607,3.607,0,0,0,.021.414.865.865,0,0,0,.1.323.5.5,0,0,0,.232.21.986.986,0,0,0,.415.074,2.679,2.679,0,0,0,.34-.028.561.561,0,0,0,.318-.13v1.418a2.343,2.343,0,0,1-.561.136,4.862,4.862,0,0,1-.571.034,2.962,2.962,0,0,1-.755-.091,1.678,1.678,0,0,1-.6-.289,1.343,1.343,0,0,1-.4-.516,1.844,1.844,0,0,1-.145-.771v-2.621h-1.035v-1.362h1.035v-1.634h1.617v1.634h1.423Z" transform="translate(-1628.189 -511.092)" fill="#fff"/>
    </g>
  </g>
</svg>
