<svg xmlns="http://www.w3.org/2000/svg" width="22" height="22" viewBox="0 0 22 22">
  <g id="sidebar_yeed_faucet_icon" transform="translate(24.831 -0.962)">
    <path id="패스_34" data-name="패스 34" d="M-15.485,7.694h4.444c2.42,0,4.064.9,5.027,2.758a7.758,7.758,0,0,1,.8,3.1h0v.884H-7.735v-.8a3.325,3.325,0,0,0-3.052-3.406l-.1-.012H-23.327V7.688h5.046l2.959.018m.255-6.744a.9.9,0,0,0-.681.324h-3.22a.916.916,0,0,0-.911.915.916.916,0,0,0,.911.915h2.989V5.593h-1.458a.912.912,0,0,0-.845.585h-4.734a.911.911,0,0,0-.9-.88.916.916,0,0,0-.911.915V11.7a.916.916,0,0,0,.911.915.911.911,0,0,0,.9-.88H-10.98a1.849,1.849,0,0,1,1.741,1.914v.476a.912.912,0,0,0-.876.908.916.916,0,0,0,.911.915h5.462a.916.916,0,0,0,.911-.915.912.912,0,0,0-.875-.908v-.576h0s0-7.365-7.333-7.365l.008-.006h-.822a.909.909,0,0,0-.844-.585h-1.458V3.117h2.989a.916.916,0,0,0,.911-.915.916.916,0,0,0-.911-.915h-3.22a.9.9,0,0,0-.681-.324Z" transform="translate(0 0)" fill="#c4c9c8"/>
    <path id="패스_35" data-name="패스 35" d="M-6.529,19.606a3.32,3.32,0,0,1,.381,1.117l.008.067.014.066a.535.535,0,0,1,.01.06v.033a.416.416,0,0,1-.414.412.416.416,0,0,1-.414-.412v-.032a.43.43,0,0,1,.011-.062l.014-.067.009-.068a3.258,3.258,0,0,1,.383-1.114m0-2.458h0A6.438,6.438,0,0,0-8.4,20.534a1.91,1.91,0,0,0-.046.411v.02h0a1.914,1.914,0,0,0,1.914,1.9,1.914,1.914,0,0,0,1.914-1.9h0v-.019a1.871,1.871,0,0,0-.045-.406,6.425,6.425,0,0,0-1.87-3.391Z" transform="translate(0.055 0.101)" fill="#c4c9c8"/>
  </g>
</svg>
