<svg xmlns="http://www.w3.org/2000/svg" width="20" height="16.251" viewBox="0 0 20 16.251">
  <path id="twitter_logo" d="M81.29,114.7a11.6,11.6,0,0,0,11.675-11.675c0-.178,0-.354-.012-.53A8.348,8.348,0,0,0,95,100.374a8.191,8.191,0,0,1-2.357.646,4.118,4.118,0,0,0,1.8-2.27,8.223,8.223,0,0,1-2.606,1,4.107,4.107,0,0,0-6.993,3.742A11.65,11.65,0,0,1,76.392,99.2a4.106,4.106,0,0,0,1.27,5.478,4.073,4.073,0,0,1-1.862-.514v.052a4.1,4.1,0,0,0,3.292,4.022,4.1,4.1,0,0,1-1.853.07,4.108,4.108,0,0,0,3.834,2.85,8.234,8.234,0,0,1-5.1,1.76A8.356,8.356,0,0,1,75,112.86a11.617,11.617,0,0,0,6.29,1.84" transform="translate(-75 -98.452)" fill="#738d88" opacity="0.8"/>
</svg>
