<svg xmlns="http://www.w3.org/2000/svg" width="20" height="23.108" viewBox="0 0 20 23.108">
  <g id="yggdrash_logo" opacity="0.8">
    <path id="패스_14" data-name="패스 14" d="M97.024,327.191l-4.966,2.841v-1.558l3.583-2.081-6.05-3.493-5.852,3.379,3.386,2.156v1.608l-4.732-2.987-2.8,1.617v11.561l10,5.774,10-5.774V328.674Zm-9.2-.824,1.757.971,1.769-1.018v1.749l-1.729,1-1.8-1.048Zm-7.256,5.42,2.043-1.182,2.523,1.465v5.125l-4.566,2.855Zm6.552,9.032-2.4,1.414-1.357-.783,3.761-2.253Zm4.23,2.045-1.769-1.018-1.757.971v-1.593l1.8-1.049,1.729,1Zm3.187-.677-2.483-1.412v-1.628l3.806,2.275Zm2.033-1.174-4.515-2.675v-5.807l-.7.42v7.413l-1.73-1-1.795,1.048v-7.4l-.7-.442v5.817l-4.467,2.657-1.265-.73,4.45-2.747v-5.8l-2.533-1.589,1.341-.793,2.337,1.378.841.507v-2.427l1.795,1.048,1.73-1v2.4l3.228-1.894,1.365.824-2.627,1.567v5.782l3.441,2.022,1.107.683Zm2.037-.978-4.585-2.873v-5.016l2.607-1.51,1.978,1.154Z" transform="translate(-79.591 -322.9)" fill="#738d88"/>
    <path id="패스_15" data-name="패스 15" d="M245.731,467.784v6.8l.442-.258.413.24V467.8l-.413.24Z" transform="translate(-236.155 -459.434)" fill="#738d88"/>
  </g>
</svg>
